<svg width="64" height="64" viewBox="0 0 64 64" fill="none" xmlns="http://www.w3.org/2000/svg">
<path d="M55.5886 29.9521V58.4048H8.48457V29.9521H4.09595V60.599C4.09595 61.811 5.0782 62.7933 6.2902 62.7933H57.7828C58.9948 62.7933 59.9771 61.811 59.9771 60.599V29.9521H55.5886Z" fill="#217461"/>
<path d="M61.8058 13.4941H2.19425C0.98225 13.4941 0 14.4764 0 15.6884V30.0244C0 31.2364 0.98225 32.2186 2.19425 32.2186H61.8056C63.0176 32.2186 63.9999 31.237 63.9999 30.0244V15.6884C64 14.4764 63.0178 13.4941 61.8058 13.4941ZM59.6114 27.8309H4.38863V17.8835H59.6115V27.8309H59.6114Z" fill="#217461"/>
<path d="M34.1592 15.1334C34.0099 14.5644 30.3902 1.20703 19.8217 1.20703C15.2239 1.20703 11.4834 4.94753 11.4834 9.54528C11.4834 14.143 15.191 17.8835 19.7485 17.8835H32.0365C32.716 17.8835 33.3583 17.5683 33.7737 17.0299C34.189 16.4915 34.331 15.7909 34.1592 15.1334ZM19.7487 13.495C17.5749 13.495 15.872 11.76 15.872 9.54528C15.872 7.40441 17.6809 5.59553 19.8218 5.59553C24.6368 5.59553 27.52 10.3389 28.9062 13.4949H19.7487V13.495Z" fill="#05B186"/>
<path d="M44.2513 1.20703C33.683 1.20703 30.0631 14.5644 29.9138 15.1334C29.7412 15.7909 29.8838 16.4917 30.2993 17.03C30.7148 17.5684 31.3562 17.8837 32.0365 17.8837H44.3245C48.882 17.8837 52.5896 14.1432 52.5896 9.54541C52.5897 4.94753 48.8492 1.20703 44.2513 1.20703ZM44.3246 13.495H35.1583C36.5342 10.3389 39.4087 5.59566 44.2522 5.59566C46.3931 5.59566 48.202 7.40453 48.202 9.54541C48.2018 11.76 46.4991 13.495 44.3246 13.495Z" fill="#05B186"/>
<path d="M36 16H28V62.7812H36V16Z" fill="#05B186"/>
</svg>
