<svg width="91" height="16" viewBox="0 0 91 16" fill="none" xmlns="http://www.w3.org/2000/svg">
<path d="M5.9171 11.661H7.42018V10.9838C7.42018 10.6039 7.37065 10.3562 7.37065 10.3562H7.40359C7.94871 11.2976 8.97274 11.8592 10.0629 11.8592C12.2762 11.8592 13.8618 10.1415 13.8618 7.48224C13.8618 4.88905 12.4578 3.10521 10.195 3.10521C9.03885 3.10521 7.98177 3.6833 7.48617 4.57523H7.45323C7.45323 4.57523 7.51923 4.27792 7.51923 3.86499V0H5.9171V11.661ZM7.4697 7.51529C7.4697 5.40108 8.62594 4.50916 9.88124 4.50916C11.2686 4.50916 12.2431 5.68187 12.2431 7.49871C12.2431 9.39818 11.153 10.4718 9.8316 10.4718C8.24598 10.4718 7.4697 9.00174 7.4697 7.51529Z" fill="white"/>
<path d="M14.6312 7.48249C14.6312 9.96002 16.4481 11.8595 19.0743 11.8595C20.2306 11.8595 21.5023 11.4135 22.3117 10.6703L21.6344 9.49759C20.9738 10.0921 20.0653 10.4721 19.1734 10.4721C17.6703 10.4721 16.382 9.49759 16.2994 7.69718H22.3778C22.4107 7.46602 22.4438 7.23475 22.4438 7.02006C22.4438 4.87278 21.1885 3.10547 18.8266 3.10547C16.4481 3.10547 14.6312 4.82324 14.6312 7.48249ZM16.349 6.54105C16.5802 5.15358 17.5547 4.34425 18.7935 4.34425C19.8837 4.34425 20.7756 5.10403 20.8251 6.54105H16.349Z" fill="white"/>
<path d="M23.1646 7.48249C23.1646 9.99308 24.9981 11.8595 27.6408 11.8595C28.9456 11.8595 30.2175 11.331 30.9772 10.5216L30.333 9.3489C29.6888 10.0261 28.6814 10.4721 27.7564 10.4721C26.0221 10.4721 24.7998 9.16727 24.7998 7.46602C24.7998 5.76471 26.0221 4.49289 27.7068 4.49289C28.5822 4.49289 29.4576 4.8893 30.0192 5.45088L30.7789 4.32773C29.9862 3.48535 28.7474 3.10547 27.6408 3.10547C25.0145 3.10547 23.1646 5.00493 23.1646 7.48249Z" fill="white"/>
<path d="M34.808 10.6373C35.6338 11.4796 36.8726 11.8595 37.9957 11.8595C39.7796 11.8595 41.0019 10.8189 41.0019 9.39843C41.0019 6.6401 36.6909 7.11911 36.6909 5.48392C36.6909 4.77369 37.302 4.44334 38.1114 4.44334C38.8547 4.44334 39.73 4.72414 40.2255 5.18661L40.8697 4.03042C40.1429 3.36974 39.1189 3.10547 38.1609 3.10547C36.5257 3.10547 35.1548 3.93132 35.1548 5.51696C35.1548 8.25877 39.4492 7.8294 39.4492 9.43148C39.4492 10.1252 38.8712 10.5216 38.0288 10.5216C37.1533 10.5216 36.1954 10.1582 35.5677 9.54712L34.808 10.6373Z" fill="white"/>
<path d="M41.7191 13.3956L41.1576 14.6179C41.1576 14.6179 41.8347 15.1299 42.7597 15.1299C43.9324 15.1299 44.973 14.4693 45.4685 13.1644L49.3995 3.30371H47.6652L45.6336 8.78736C45.485 9.21685 45.3528 9.77844 45.3528 9.77844H45.3198C45.3198 9.77844 45.1712 9.18379 45.006 8.77089L42.9083 3.30371H41.1079L44.6096 11.5623L44.1967 12.5202C43.8828 13.28 43.3378 13.759 42.6771 13.759C42.1816 13.759 41.7191 13.3956 41.7191 13.3956Z" fill="white"/>
<path d="M49.4229 10.6373C50.2487 11.4796 51.4875 11.8595 52.6107 11.8595C54.3945 11.8595 55.6168 10.8189 55.6168 9.39843C55.6168 6.6401 51.3058 7.11911 51.3058 5.48392C51.3058 4.77369 51.9169 4.44334 52.7262 4.44334C53.4696 4.44334 54.3449 4.72414 54.8405 5.18661L55.4847 4.03042C54.7579 3.36974 53.7338 3.10547 52.7759 3.10547C51.1406 3.10547 49.7697 3.93132 49.7697 5.51696C49.7697 8.25877 54.0642 7.8294 54.0642 9.43148C54.0642 10.1252 53.486 10.5216 52.6437 10.5216C51.7683 10.5216 50.8103 10.1582 50.1827 9.54712L49.4229 10.6373Z" fill="white"/>
<path d="M57.2068 8.6057C57.2068 11.3971 59.3375 11.7439 60.4111 11.7439C60.6589 11.7439 60.8405 11.7108 60.9727 11.6943V10.2739C60.8075 10.3069 60.7084 10.3069 60.5928 10.3069C59.9817 10.3069 58.809 10.0921 58.809 8.42395V4.69111H60.8241V3.38627H58.809V1.00781H57.2398V3.38627H56.1166V4.69111H57.2068V8.6057Z" fill="white"/>
<path d="M61.332 7.48249C61.332 9.96002 63.1489 11.8595 65.7751 11.8595C66.9313 11.8595 68.2031 11.4135 69.0124 10.6703L68.3353 9.49759C67.6745 10.0921 66.7662 10.4721 65.8742 10.4721C64.3712 10.4721 63.0829 9.49759 63.0003 7.69718H69.0785C69.1116 7.46602 69.1446 7.23475 69.1446 7.02006C69.1446 4.87278 67.8893 3.10547 65.5273 3.10547C63.1489 3.10547 61.332 4.82324 61.332 7.48249ZM63.0498 6.54105C63.2811 5.15358 64.2556 4.34425 65.4943 4.34425C66.5844 4.34425 67.4763 5.10403 67.526 6.54105H63.0498Z" fill="white"/>
<path d="M70.4104 11.6613H72.0126V7.76329C72.0126 6.21067 72.9375 4.55897 74.5232 4.55897C75.795 4.55897 75.9601 5.56651 75.9601 6.65668V11.6613H77.5623V7.76329C77.5623 6.16112 78.4873 4.55897 80.0399 4.55897C81.2787 4.55897 81.5098 5.48392 81.5098 6.65668V11.6613H83.112V6.30978C83.112 4.17907 82.2532 3.10547 80.3537 3.10547C78.9993 3.10547 77.8431 4.03042 77.3806 5.00493H77.3475C77.0669 3.74963 76.2574 3.10547 74.8535 3.10547C73.5321 3.10547 72.3429 4.09648 71.9465 5.07099H71.9135C71.9135 5.07099 71.963 4.7902 71.963 4.44334V3.30366H70.4104V11.6613Z" fill="white"/>
<path d="M84.1372 10.6373C84.9631 11.4796 86.2018 11.8595 87.325 11.8595C89.1088 11.8595 90.3312 10.8189 90.3312 9.39843C90.3312 6.6401 86.0202 7.11911 86.0202 5.48392C86.0202 4.77369 86.6313 4.44334 87.4406 4.44334C88.1839 4.44334 89.0593 4.72414 89.5548 5.18661L90.199 4.03042C89.4722 3.36974 88.4482 3.10547 87.4902 3.10547C85.855 3.10547 84.4841 3.93132 84.4841 5.51696C84.4841 8.25877 88.7785 7.8294 88.7785 9.43148C88.7785 10.1252 88.2005 10.5216 87.3581 10.5216C86.4826 10.5216 85.5247 10.1582 84.897 9.54712L84.1372 10.6373Z" fill="white"/>
<path d="M2.10899 11.661H3.96421L3.71114 4.69092H2.36205L2.10899 11.661Z" fill="#D4177D"/>
<path d="M3.03665 0L3.56324 1.62068H5.26731L3.88869 2.6223L4.41528 4.24298L3.03665 3.24134L1.65802 4.24298L2.18461 2.6223L0.805984 1.62068H2.51006L3.03665 0Z" fill="#D4177D"/>
</svg>
