<svg width="64" height="64" viewBox="0 0 64 64" fill="none" xmlns="http://www.w3.org/2000/svg">
<path d="M49.104 8H33.104C30.9823 8 28.9474 8.84285 27.4471 10.3431C25.9469 11.8434 25.104 13.8783 25.104 16V25.3333C25.104 26.0697 25.701 26.6667 26.4373 26.6667C27.1737 26.6667 27.7707 26.0697 27.7707 25.3333V16C27.7707 14.5855 28.3326 13.229 29.3328 12.2288C30.333 11.2286 31.6895 10.6667 33.104 10.6667H49.104C50.5185 10.6667 51.875 11.2286 52.8752 12.2288C53.8754 13.229 54.4373 14.5855 54.4373 16V50.6667C54.4373 52.0812 53.8754 53.4377 52.8752 54.4379C51.875 55.4381 50.5185 56 49.104 56H33.104C31.6895 56 30.333 55.4381 29.3328 54.4379C28.3326 53.4377 27.7707 52.0812 27.7707 50.6667V41.3333C27.7707 40.597 27.1737 40 26.4373 40C25.701 40 25.104 40.597 25.104 41.3333V50.6667C25.104 52.7884 25.9469 54.8232 27.4471 56.3235C28.9474 57.8238 30.9823 58.6667 33.104 58.6667H49.104C51.2257 58.6667 53.2606 57.8238 54.7609 56.3235C56.2611 54.8232 57.104 52.7884 57.104 50.6667V16C57.104 13.8783 56.2611 11.8434 54.7609 10.3431C53.2606 8.84285 51.2257 8 49.104 8ZM41.104 33.3333C41.104 32.597 40.507 32 39.7707 32H11.104L18.8836 24.2204C19.382 23.722 19.4063 22.9218 18.9391 22.394C18.4299 21.8189 17.5414 21.7919 16.9983 22.3351L6 33.3333L16.9983 44.3316C17.5414 44.8747 18.4299 44.8477 18.9391 44.2726C19.4063 43.7449 19.382 42.9447 18.8836 42.4463L11.104 34.6667H39.7707C40.507 34.6667 41.104 34.0697 41.104 33.3333Z" fill="#217461"/>
<path d="M49.104 8H33.104C30.9823 8 28.9474 8.84285 27.4471 10.3431C25.9469 11.8434 25.104 13.8783 25.104 16V25.3333C25.104 26.0697 25.701 26.6667 26.4373 26.6667C27.1737 26.6667 27.7707 26.0697 27.7707 25.3333V16C27.7707 14.5855 28.3326 13.229 29.3328 12.2288C30.333 11.2286 31.6895 10.6667 33.104 10.6667H49.104C50.5185 10.6667 51.875 11.2286 52.8752 12.2288C53.8754 13.229 54.4373 14.5855 54.4373 16V50.6667C54.4373 52.0812 53.8754 53.4377 52.8752 54.4379C51.875 55.4381 50.5185 56 49.104 56H33.104C31.6895 56 30.333 55.4381 29.3328 54.4379C28.3326 53.4377 27.7707 52.0812 27.7707 50.6667V41.3333C27.7707 40.597 27.1737 40 26.4373 40C25.701 40 25.104 40.597 25.104 41.3333V50.6667C25.104 52.7884 25.9469 54.8232 27.4471 56.3235C28.9474 57.8238 30.9823 58.6667 33.104 58.6667H49.104C51.2257 58.6667 53.2606 57.8238 54.7609 56.3235C56.2611 54.8232 57.104 52.7884 57.104 50.6667V16C57.104 13.8783 56.2611 11.8434 54.7609 10.3431C53.2606 8.84285 51.2257 8 49.104 8Z" fill="#05B186"/>
</svg>
