<svg width="64" height="64" viewBox="0 0 64 64" fill="none" xmlns="http://www.w3.org/2000/svg">
<path d="M32 15.9993V23.9993L42.6666 13.3327L32 2.66602V10.666C20.2133 10.666 10.6666 20.2127 10.6666 31.9993C10.6666 36.186 11.8933 40.0793 13.9733 43.3593L17.8666 39.466C16.6666 37.2527 16 34.6927 16 31.9993C16 23.1727 23.1733 15.9993 32 15.9993ZM50.0266 20.6393L46.1333 24.5327C47.3066 26.7727 48 29.306 48 31.9993C48 40.826 40.8266 47.9993 32 47.9993V39.9993L21.3333 50.666L32 61.3327V53.3327C43.7866 53.3327 53.3333 43.786 53.3333 31.9993C53.3333 27.8127 52.1066 23.9193 50.0266 20.6393V20.6393Z" fill="#05B186"/>
</svg>
