<svg width="64" height="64" viewBox="0 0 64 64" fill="none" xmlns="http://www.w3.org/2000/svg">
<path d="M48 21.334C48 17.0905 46.3143 13.0209 43.3137 10.0203C40.3131 7.01969 36.2435 5.33398 32 5.33398C27.7565 5.33398 23.6869 7.01969 20.6863 10.0203C17.6857 13.0209 16 17.0905 16 21.334C16 40.0007 8 45.334 8 45.334H56C56 45.334 48 40.0007 48 21.334Z" stroke="#05B186" stroke-width="3" stroke-linecap="round" stroke-linejoin="round"/>
<path d="M36.6134 56C36.1446 56.8082 35.4716 57.4791 34.662 57.9454C33.8523 58.4118 32.9344 58.6572 32.0001 58.6572C31.0657 58.6572 30.1478 58.4118 29.3381 57.9454C28.5285 57.4791 27.8555 56.8082 27.3867 56" stroke="#05B186" stroke-width="3" stroke-linecap="round" stroke-linejoin="round"/>
</svg>
