<svg width="24" height="24" viewBox="0 0 24 24" fill="none" xmlns="http://www.w3.org/2000/svg">
	<path d="M20.8457 11.2319V21.9017H3.18175V11.2319H1.53601V22.7245C1.53601 23.179 1.90435 23.5474 2.35885 23.5474H21.6686C22.1231 23.5474 22.4914 23.179 22.4914 22.7245V11.2319H20.8457Z" fill="#969696"/>
	<path d="M23.1772 5.06006H0.822844C0.368344 5.06006 0 5.4284 0 5.8829V11.2589C0 11.7134 0.368344 12.0817 0.822844 12.0817H23.1771C23.6316 12.0817 24 11.7136 24 11.2589V5.8829C24 5.4284 23.6317 5.06006 23.1772 5.06006ZM22.3543 10.4363H1.64573V6.70607H22.3543V10.4363H22.3543Z" fill="#969696"/>
	<path d="M12.8097 5.67503C12.7537 5.46165 11.3963 0.452637 7.43312 0.452637C5.70896 0.452637 4.30627 1.85532 4.30627 3.57948C4.30627 5.30364 5.69663 6.70632 7.4057 6.70632H12.0137C12.2685 6.70632 12.5094 6.58811 12.6651 6.38622C12.8209 6.18433 12.8741 5.92159 12.8097 5.67503ZM7.40574 5.06064C6.59059 5.06064 5.95201 4.41001 5.95201 3.57948C5.95201 2.77665 6.63034 2.09832 7.43317 2.09832C9.23879 2.09832 10.32 3.87709 10.8398 5.06059H7.40574V5.06064Z" fill="#969696"/>
	<path d="M16.5943 0.452637C12.6311 0.452637 11.2737 5.46165 11.2177 5.67503C11.153 5.92159 11.2065 6.18437 11.3623 6.38626C11.5181 6.58815 11.7586 6.70637 12.0137 6.70637H16.6217C18.3308 6.70637 19.7211 5.30368 19.7211 3.57953C19.7212 1.85532 18.3185 0.452637 16.5943 0.452637ZM16.6217 5.06064H13.1844C13.7004 3.87709 14.7783 2.09837 16.5946 2.09837C17.3974 2.09837 18.0758 2.7767 18.0758 3.57953C18.0757 4.41001 17.4372 5.06064 16.6217 5.06064Z" fill="#969696"/>
	<path d="M13.5 6H10.5V23.543H13.5V6Z" fill="#969696"/>
</svg>
