<svg width="32" height="32" viewBox="0 0 32 32" fill="none" xmlns="http://www.w3.org/2000/svg">
<path d="M16 32C19.8654 32 23.4107 30.6293 26.1763 28.3474H24.1789C21.8354 29.9028 19.0235 30.8089 16 30.8089C12.9765 30.8089 10.1646 29.9028 7.82113 28.3474H5.82374C8.58931 30.6293 12.1346 32 16 32Z" fill="#05B186"/>
<path d="M32 16C32 17.5574 31.7775 19.0629 31.3625 20.4864H30.1172C30.5665 19.0712 30.8089 17.5639 30.8089 16C30.8089 13.3476 30.1116 10.8581 28.8903 8.70473C28.5616 8.87593 28.1879 8.9727 27.7916 8.9727C26.4759 8.9727 25.4094 7.90619 25.4094 6.59057C25.4094 6.00418 25.6213 5.46728 25.9727 5.05225C23.341 2.65362 19.8413 1.19107 16 1.19107C7.82125 1.19107 1.19107 7.82125 1.19107 16C1.19107 17.5639 1.4335 19.0712 1.88282 20.4864H0.637518C0.222525 19.0629 0 17.5574 0 16C0 7.16344 7.16344 0 16 0C20.2465 0 24.1065 1.65428 26.9709 4.35355C27.2268 4.25968 27.5032 4.20844 27.7916 4.20844C29.1072 4.20844 30.1737 5.27495 30.1737 6.59057C30.1737 7.06761 30.0335 7.51189 29.792 7.88446C31.1951 10.2638 32 13.0379 32 16Z" fill="#05B186"/>
<path d="M3.56714 22.5728H3.59389C3.88805 22.2467 4.27137 22.0837 4.74382 22.0837C5.00233 22.0837 5.23856 22.1293 5.4525 22.2206C5.6709 22.3076 5.8581 22.4315 6.0141 22.5924C6.17455 22.7489 6.29712 22.938 6.38181 23.1598C6.47095 23.3771 6.51552 23.6163 6.51552 23.8771C6.51552 24.138 6.47095 24.3771 6.38181 24.5945C6.29712 24.8119 6.17678 25.001 6.02078 25.1619C5.86478 25.3227 5.67758 25.4488 5.45919 25.5401C5.24524 25.6271 5.01125 25.6706 4.75719 25.6706C4.32485 25.6706 3.99503 25.5271 3.76771 25.2401H3.74097V26.1466C3.74097 26.3205 3.74988 26.4597 3.76771 26.564C3.78554 26.6684 3.82343 26.7488 3.88137 26.8053C3.93931 26.8618 4.01954 26.901 4.12205 26.9227C4.22902 26.9444 4.36942 26.9575 4.54325 26.9618V27.2357H2.2367V26.9618C2.35704 26.9575 2.45509 26.9444 2.53087 26.9227C2.60664 26.901 2.66458 26.8618 2.70469 26.8053C2.74926 26.7488 2.77823 26.6705 2.79161 26.5705C2.80943 26.4749 2.81835 26.3488 2.81835 26.1923V23.7663C2.81835 23.5663 2.81389 23.3771 2.80498 23.1989C2.79606 23.0163 2.78492 22.888 2.77155 22.8141C2.74926 22.7141 2.69801 22.6446 2.61778 22.6054C2.54201 22.5663 2.41052 22.5467 2.22333 22.5467V22.2924L3.56714 22.1098V22.5728ZM4.70371 22.4554C4.56108 22.4554 4.42514 22.4859 4.29588 22.5467C4.16662 22.6076 4.06411 22.688 3.98834 22.788C3.91257 22.888 3.85463 23.0141 3.81451 23.1663C3.7744 23.3141 3.75434 23.475 3.75434 23.6489V24.0923C3.75434 24.401 3.83234 24.6641 3.98834 24.8814C4.15771 25.1206 4.39617 25.2401 4.70371 25.2401C4.97559 25.2401 5.17616 25.1314 5.30542 24.9141C5.43913 24.6923 5.50598 24.351 5.50598 23.8902C5.50598 22.9337 5.23856 22.4554 4.70371 22.4554Z" fill="#05B186"/>
<path d="M9.43893 23.7467C9.06453 23.9119 8.78151 24.0663 8.58985 24.2097C8.40265 24.3489 8.30905 24.4945 8.30905 24.6467C8.30905 24.7728 8.34471 24.8728 8.41602 24.9467C8.48734 25.0206 8.57648 25.0575 8.68345 25.0575C8.79042 25.0575 8.89071 25.0401 8.9843 25.0054C9.0779 24.9662 9.15813 24.9162 9.22499 24.8554C9.29185 24.7945 9.3431 24.7228 9.37876 24.6402C9.41887 24.5532 9.43893 24.4619 9.43893 24.3662V23.7467ZM9.43893 23.4011V23.1271C9.43893 22.875 9.39213 22.6924 9.29853 22.5793C9.20939 22.4619 9.06899 22.4033 8.87733 22.4033C8.74808 22.4033 8.65002 22.438 8.58316 22.5076C8.51631 22.5728 8.45391 22.6837 8.39597 22.8402C8.35585 22.9489 8.29791 23.0337 8.22214 23.0945C8.15083 23.1554 8.05054 23.1858 7.92128 23.1858C7.79649 23.1858 7.70066 23.1489 7.6338 23.075C7.56694 23.0011 7.53352 22.8967 7.53352 22.7619C7.53352 22.5532 7.6494 22.388 7.88117 22.2663C8.1174 22.1446 8.47174 22.0837 8.94419 22.0837C9.44339 22.0837 9.79995 22.1728 10.0139 22.3511C10.2278 22.525 10.3348 22.8185 10.3348 23.2315V24.6597C10.3348 25.0293 10.4106 25.214 10.5621 25.214C10.6468 25.214 10.7248 25.1858 10.7961 25.1293L10.8964 25.3184C10.834 25.4271 10.7359 25.514 10.6022 25.5793C10.473 25.6401 10.3259 25.6706 10.161 25.6706C9.95595 25.6706 9.79995 25.6097 9.69298 25.488C9.58601 25.3662 9.53253 25.1945 9.53253 24.9727H9.4991C9.36984 25.1988 9.2027 25.3706 8.99768 25.488C8.79265 25.6053 8.55865 25.664 8.29568 25.664C8.01488 25.664 7.7898 25.5879 7.62043 25.4358C7.45106 25.2793 7.36637 25.0771 7.36637 24.8293C7.36637 24.638 7.45329 24.4597 7.62711 24.2945C7.80094 24.1249 8.09066 23.9597 8.49625 23.7989L9.43893 23.4011Z" fill="#05B186"/>
<path d="M13.0373 24.5945C13.0373 24.7641 13.044 24.8988 13.0573 24.9988C13.0752 25.0945 13.1086 25.1684 13.1576 25.2206C13.2066 25.2727 13.278 25.3075 13.3716 25.3249C13.4652 25.338 13.59 25.3445 13.746 25.3445V25.6053H11.5129V25.3445C11.6467 25.3358 11.7536 25.3227 11.8339 25.3053C11.9141 25.288 11.9743 25.2532 12.0144 25.201C12.0545 25.1488 12.079 25.0749 12.0879 24.9793C12.1013 24.8793 12.108 24.7467 12.108 24.5815V23.7858C12.108 23.5163 12.1013 23.3011 12.0879 23.1402C12.0745 22.9793 12.0456 22.8554 12.001 22.7685C11.9564 22.6815 11.8918 22.625 11.8071 22.5989C11.7269 22.5685 11.6199 22.5532 11.4862 22.5532V22.325L12.8233 22.0837L12.9303 22.8337H12.957C13.0774 22.6032 13.2356 22.4206 13.4317 22.2859C13.6278 22.1511 13.8351 22.0837 14.0535 22.0837C14.2229 22.0837 14.361 22.125 14.468 22.2076C14.575 22.2902 14.6285 22.3946 14.6285 22.5206C14.6285 22.6598 14.5861 22.7772 14.5014 22.8728C14.4212 22.9685 14.3098 23.0163 14.1672 23.0163C14.1003 23.0163 14.0401 23.0032 13.9866 22.9771C13.9332 22.9511 13.8841 22.9228 13.8396 22.8924C13.7994 22.8576 13.7571 22.8272 13.7125 22.8011C13.6724 22.7706 13.6301 22.7554 13.5855 22.7554C13.5008 22.7554 13.4206 22.8098 13.3448 22.9185C13.269 23.0271 13.2066 23.1728 13.1576 23.3554C13.122 23.4858 13.093 23.6337 13.0707 23.7989C13.0484 23.9597 13.0373 24.1206 13.0373 24.2815V24.5945Z" fill="#05B186"/>
<path d="M15.3441 22.5076V22.2141C15.6116 22.1402 15.8344 22.0293 16.0127 21.8815C16.1955 21.7294 16.3314 21.5554 16.4205 21.3598H16.7615V22.1489H17.5304V22.5076H16.7615V24.5097C16.7615 24.7793 16.7905 24.9706 16.8484 25.0836C16.9108 25.1967 17.0133 25.2532 17.156 25.2532C17.3298 25.2532 17.4613 25.1749 17.5504 25.0184L17.6908 25.2075C17.566 25.5162 17.2718 25.6706 16.8083 25.6706C16.5008 25.6706 16.2601 25.601 16.0863 25.4619C15.9169 25.3227 15.8322 25.1271 15.8322 24.8749V22.5076H15.3441Z" fill="#05B186"/>
<path d="M19.6152 24.5423C19.6152 24.7206 19.6196 24.8619 19.6286 24.9662C19.6419 25.0662 19.6664 25.1445 19.7021 25.201C19.7422 25.2532 19.8002 25.288 19.8759 25.3053C19.9562 25.3227 20.0631 25.3358 20.1968 25.3445V25.6053H18.0909V25.3445C18.2201 25.3358 18.3226 25.3227 18.3984 25.3053C18.4786 25.288 18.5388 25.2532 18.5789 25.201C18.6235 25.1488 18.6524 25.0749 18.6658 24.9793C18.6792 24.8836 18.6859 24.7532 18.6859 24.588V23.7728C18.6859 23.5163 18.6814 23.3097 18.6725 23.1532C18.6636 22.9924 18.6524 22.8837 18.6391 22.8272C18.6257 22.7706 18.6079 22.725 18.5856 22.6902C18.5633 22.6511 18.5299 22.6228 18.4853 22.6054C18.4407 22.5837 18.385 22.5706 18.3182 22.5663C18.2513 22.5576 18.1666 22.5532 18.0641 22.5532V22.3315L19.3544 22.0837L19.4414 22.6576H19.4681C19.6152 22.475 19.789 22.3337 19.9896 22.2337C20.1902 22.1337 20.4108 22.0837 20.6515 22.0837C20.9367 22.0837 21.1663 22.1228 21.3401 22.2011C21.5184 22.275 21.6766 22.4011 21.8148 22.5793C21.8905 22.6793 21.9574 22.8098 22.0153 22.9706C22.0733 23.1271 22.1023 23.3445 22.1023 23.6228V24.5423C22.1023 24.7206 22.1067 24.8619 22.1156 24.9662C22.129 25.0662 22.1535 25.1445 22.1892 25.201C22.2293 25.2532 22.2872 25.288 22.363 25.3053C22.4388 25.3227 22.5413 25.3358 22.6705 25.3445V25.6053H20.5779V25.3445C20.7116 25.3401 20.8164 25.3293 20.8921 25.3119C20.9724 25.2901 21.0325 25.2532 21.0727 25.201C21.1128 25.1488 21.1395 25.0749 21.1529 24.9793C21.1663 24.8793 21.1729 24.7488 21.1729 24.588V23.701C21.1729 23.4793 21.1596 23.2924 21.1328 23.1402C21.1061 22.988 21.0615 22.8663 20.9991 22.775C20.9412 22.6793 20.8632 22.6119 20.7651 22.5728C20.6671 22.5293 20.5445 22.5076 20.3974 22.5076C20.2548 22.5076 20.1322 22.5467 20.0297 22.625C19.9272 22.7032 19.838 22.8119 19.7623 22.9511C19.7222 23.0293 19.6865 23.1315 19.6553 23.2576C19.6286 23.3793 19.6152 23.5076 19.6152 23.6423V24.5423Z" fill="#05B186"/>
<path d="M26.3648 24.9988C25.9592 25.4466 25.4533 25.6706 24.8471 25.6706C24.5708 25.6706 24.319 25.6293 24.0917 25.5466C23.8688 25.4597 23.6771 25.3401 23.5167 25.188C23.3562 25.0314 23.2314 24.8467 23.1423 24.6336C23.0531 24.4206 23.0086 24.1836 23.0086 23.9228C23.0086 23.6532 23.0554 23.4076 23.149 23.1858C23.2426 22.9598 23.3741 22.7663 23.5434 22.6054C23.7173 22.4402 23.9201 22.3119 24.1518 22.2206C24.3881 22.1293 24.6466 22.0837 24.9274 22.0837C25.3998 22.0837 25.7675 22.2076 26.0305 22.4554C26.2935 22.7032 26.4249 23.0511 26.4249 23.4989C26.4249 23.5684 26.4138 23.6119 26.3915 23.6293C26.3692 23.6423 26.3068 23.6489 26.2043 23.6489H24.0515C24.0337 23.688 24.0248 23.7597 24.0248 23.8641C24.0248 24.2902 24.1184 24.6271 24.3056 24.8749C24.4973 25.1227 24.7558 25.2467 25.0811 25.2467C25.2683 25.2467 25.4533 25.2054 25.636 25.1227C25.8232 25.0401 26.0038 24.9228 26.1776 24.7706L26.3648 24.9988ZM25.0678 23.2837C25.246 23.2837 25.3597 23.275 25.4087 23.2576C25.4622 23.2358 25.489 23.188 25.489 23.1141C25.489 22.9228 25.4332 22.7663 25.3218 22.6446C25.2104 22.5228 25.07 22.4619 24.9006 22.4619C24.709 22.4619 24.5374 22.5402 24.3858 22.6967C24.2387 22.8489 24.1429 23.0445 24.0983 23.2837H25.0678Z" fill="#05B186"/>
<path d="M28.4237 24.5945C28.4237 24.7641 28.4304 24.8988 28.4438 24.9988C28.4616 25.0945 28.495 25.1684 28.544 25.2206C28.5931 25.2727 28.6644 25.3075 28.758 25.3249C28.8516 25.338 28.9764 25.3445 29.1324 25.3445V25.6053H26.8994V25.3445C27.0331 25.3358 27.1401 25.3227 27.2203 25.3053C27.3005 25.288 27.3607 25.2532 27.4008 25.201C27.4409 25.1488 27.4654 25.0749 27.4743 24.9793C27.4877 24.8793 27.4944 24.7467 27.4944 24.5815V23.7858C27.4944 23.5163 27.4877 23.3011 27.4743 23.1402C27.461 22.9793 27.432 22.8554 27.3874 22.7685C27.3429 22.6815 27.2782 22.625 27.1935 22.5989C27.1133 22.5685 27.0063 22.5532 26.8726 22.5532V22.325L28.2098 22.0837L28.3167 22.8337H28.3435C28.4638 22.6032 28.622 22.4206 28.8182 22.2859C29.0143 22.1511 29.2215 22.0837 29.4399 22.0837C29.6093 22.0837 29.7475 22.125 29.8544 22.2076C29.9614 22.2902 30.0149 22.3946 30.0149 22.5206C30.0149 22.6598 29.9725 22.7772 29.8879 22.8728C29.8076 22.9685 29.6962 23.0163 29.5536 23.0163C29.4867 23.0163 29.4265 23.0032 29.3731 22.9771C29.3196 22.9511 29.2706 22.9228 29.226 22.8924C29.1859 22.8576 29.1435 22.8272 29.099 22.8011C29.0588 22.7706 29.0165 22.7554 28.9719 22.7554C28.8872 22.7554 28.807 22.8098 28.7312 22.9185C28.6555 23.0271 28.5931 23.1728 28.544 23.3554C28.5084 23.4858 28.4794 23.6337 28.4571 23.7989C28.4348 23.9597 28.4237 24.1206 28.4237 24.2815V24.5945Z" fill="#05B186"/>
<path d="M8.92176 15.7641C8.92176 15.1604 8.80355 14.6939 8.56713 14.3647C8.3307 14.0276 7.99971 13.859 7.57414 13.859C7.41653 13.9217 7.26285 13.9727 7.11311 14.0119C6.97126 14.0511 6.84911 14.0707 6.74666 14.0707C6.52599 14.0707 6.35262 14.0276 6.22652 13.9413C6.10831 13.8472 6.0492 13.7179 6.0492 13.5532C6.0492 13.4121 6.10831 13.3024 6.22652 13.224C6.34473 13.1456 6.51023 13.1064 6.72301 13.1064C6.83335 13.1064 6.9555 13.122 7.08947 13.1534C7.23133 13.1769 7.35742 13.2044 7.46775 13.2357C7.84603 13.2357 8.1455 13.0907 8.36617 12.8006C8.59471 12.5027 8.70898 12.0597 8.70898 11.4717C8.70898 10.9073 8.59471 10.48 8.36617 10.1899C8.1455 9.89983 7.84209 9.75479 7.45593 9.75479C7.09341 9.75479 6.8097 9.84103 6.6048 10.0135C6.40778 10.186 6.30927 10.4251 6.30927 10.7309C6.30927 10.9425 6.36838 11.1189 6.48659 11.2601C6.61268 11.4012 6.7703 11.4717 6.95944 11.4717C6.91215 11.6834 6.8097 11.852 6.65209 11.9774C6.49447 12.095 6.29351 12.1538 6.0492 12.1538C5.86006 12.1538 5.67881 12.1185 5.50543 12.048C5.33993 11.9774 5.19414 11.8794 5.06804 11.754C4.94195 11.6285 4.8395 11.4874 4.76069 11.3306C4.68976 11.166 4.6543 10.9896 4.6543 10.8014C4.6543 10.5505 4.72129 10.3232 4.85526 10.1193C4.98923 9.91551 5.17837 9.73911 5.42268 9.59015C5.67487 9.44119 5.9704 9.32751 6.30927 9.24911C6.65603 9.17071 7.04219 9.13151 7.46775 9.13151C7.93272 9.13151 8.3504 9.18247 8.7208 9.28439C9.09908 9.37847 9.42219 9.51959 9.69014 9.70775C9.95809 9.88807 10.163 10.1076 10.3048 10.3663C10.4467 10.625 10.5176 10.9112 10.5176 11.2248C10.5176 11.4757 10.4743 11.7187 10.3876 11.9539C10.3088 12.1891 10.1906 12.4047 10.033 12.6007C9.88322 12.7888 9.70196 12.9535 9.48918 13.0946C9.28428 13.2357 9.05968 13.3376 8.81537 13.4004V13.4709C9.11484 13.5572 9.38673 13.6787 9.63104 13.8355C9.88322 13.9844 10.096 14.1648 10.2694 14.3764C10.4428 14.5881 10.5767 14.8194 10.6713 15.0703C10.7659 15.3211 10.8132 15.5877 10.8132 15.8699C10.8132 16.2384 10.7265 16.5795 10.5531 16.893C10.3876 17.2066 10.1512 17.4771 9.84382 17.7045C9.54435 17.9318 9.18577 18.1082 8.76809 18.2337C8.35828 18.3591 7.90514 18.4218 7.40865 18.4218C6.95944 18.4218 6.54176 18.3709 6.1556 18.269C5.77732 18.1592 5.45026 18.0142 5.17443 17.8338C4.8986 17.6457 4.68188 17.4262 4.52427 17.1753C4.36665 16.9166 4.28784 16.6343 4.28784 16.3286C4.28784 16.1091 4.32725 15.9052 4.40605 15.7171C4.49274 15.5211 4.60701 15.3525 4.74887 15.2114C4.89072 15.0624 5.05622 14.9448 5.24536 14.8586C5.4345 14.7723 5.63546 14.7292 5.84824 14.7292C6.10831 14.7292 6.32897 14.7998 6.51023 14.9409C6.69149 15.0742 6.80576 15.2545 6.85305 15.4819C6.61662 15.4819 6.4196 15.5799 6.26199 15.7759C6.10437 15.964 6.02556 16.1992 6.02556 16.4815C6.02556 16.8656 6.14771 17.1753 6.39202 17.4105C6.64421 17.6378 6.97914 17.7515 7.39682 17.7515C7.84603 17.7515 8.21249 17.5712 8.4962 17.2106C8.77991 16.8499 8.92176 16.3678 8.92176 15.7641Z" fill="#05B186"/>
<path d="M18.8128 15.2584C18.8128 15.6975 18.7222 16.1091 18.5409 16.4932C18.3675 16.8774 18.1272 17.2145 17.8198 17.5046C17.5125 17.7868 17.15 18.0102 16.7323 18.1749C16.3225 18.3395 15.8811 18.4218 15.4083 18.4218C14.896 18.4218 14.4271 18.3238 14.0016 18.1278C13.576 17.924 13.2095 17.6418 12.9022 17.2811C12.6027 16.9205 12.3663 16.4932 12.1929 15.9993C12.0274 15.4975 11.9447 14.9448 11.9447 14.3411C11.9447 13.6277 12.055 12.9574 12.2757 12.3302C12.4963 11.6952 12.7958 11.1425 13.1741 10.6721C13.5524 10.1938 13.9937 9.81751 14.4981 9.54311C15.0024 9.26871 15.5423 9.13151 16.1176 9.13151C16.4328 9.13151 16.7283 9.16679 17.0042 9.23735C17.28 9.30007 17.5164 9.39023 17.7134 9.50783C17.9183 9.62543 18.0799 9.76655 18.1981 9.93119C18.3163 10.088 18.3754 10.2605 18.3754 10.4486C18.3754 10.676 18.3045 10.8563 18.1626 10.9896C18.0208 11.115 17.8316 11.1777 17.5952 11.1777C17.4297 11.1777 17.2997 11.1425 17.2051 11.0719C17.1105 11.0013 17.0278 10.9151 16.9569 10.8132C16.8938 10.7113 16.8347 10.6015 16.7796 10.4839C16.7244 10.3585 16.6535 10.2448 16.5668 10.1429C16.488 10.0409 16.3855 9.95471 16.2594 9.88415C16.1333 9.81359 15.9639 9.77831 15.7511 9.77831C15.491 9.77831 15.2507 9.86455 15.03 10.037C14.8094 10.2017 14.6163 10.4329 14.4508 10.7309C14.2932 11.0209 14.1671 11.3659 14.0725 11.7657C13.9779 12.1656 13.9306 12.6007 13.9306 13.0711L13.9661 13.0946C14.2183 12.8124 14.4823 12.6046 14.7581 12.4713C15.0418 12.338 15.3728 12.2714 15.7511 12.2714C16.1846 12.2714 16.5865 12.3498 16.9569 12.5066C17.3352 12.6556 17.6583 12.8633 17.9262 13.1299C18.202 13.3964 18.4188 13.714 18.5764 14.0824C18.734 14.4431 18.8128 14.8351 18.8128 15.2584ZM13.907 14.9762C13.907 15.9013 14.037 16.5991 14.2971 17.0694C14.565 17.5398 14.9512 17.775 15.4556 17.775C15.9521 17.775 16.3185 17.5751 16.555 17.1753C16.7914 16.7754 16.9096 16.1522 16.9096 15.3055C16.9096 14.5371 16.7953 13.957 16.5668 13.565C16.3461 13.1652 16.0191 12.9652 15.5856 12.9652C15.2389 12.9652 14.9354 13.075 14.6754 13.2945C14.4153 13.514 14.1592 13.8629 13.907 14.3411V14.9762Z" fill="#05B186"/>
<path d="M23.7757 9.13151C24.3195 9.13151 24.8278 9.25303 25.3006 9.49607C25.7814 9.73911 26.199 10.0723 26.5537 10.4957C26.9083 10.919 27.1881 11.4169 27.393 11.9892C27.6058 12.5615 27.7122 13.1808 27.7122 13.8472C27.7122 14.4823 27.6058 15.0781 27.393 15.6347C27.1881 16.1914 26.9083 16.6775 26.5537 17.093C26.199 17.5006 25.7814 17.826 25.3006 18.069C24.8278 18.3042 24.3195 18.4218 23.7757 18.4218C23.2398 18.4218 22.7354 18.3042 22.2626 18.069C21.7976 17.826 21.3878 17.5006 21.0332 17.093C20.6864 16.6775 20.4106 16.1914 20.2057 15.6347C20.0008 15.0781 19.8983 14.4823 19.8983 13.8472C19.8983 13.1808 20.0008 12.5615 20.2057 11.9892C20.4106 11.4169 20.6864 10.919 21.0332 10.4957C21.3878 10.0723 21.7976 9.73911 22.2626 9.49607C22.7354 9.25303 23.2398 9.13151 23.7757 9.13151ZM23.7757 17.7398C24.0594 17.7398 24.3116 17.681 24.5322 17.5634C24.7608 17.4379 24.9539 17.2262 25.1115 16.9283C25.2691 16.6304 25.3873 16.2345 25.4661 15.7406C25.5528 15.2467 25.5962 14.6273 25.5962 13.8825C25.5962 13.1064 25.5528 12.4596 25.4661 11.9421C25.3873 11.4169 25.2691 10.9974 25.1115 10.6838C24.9539 10.3702 24.7608 10.1468 24.5322 10.0135C24.3116 9.88023 24.0594 9.81359 23.7757 9.81359C23.492 9.81359 23.2359 9.88023 23.0073 10.0135C22.7866 10.1468 22.5975 10.3702 22.4399 10.6838C22.2823 10.9974 22.1601 11.4169 22.0734 11.9421C21.9946 12.4596 21.9552 13.1064 21.9552 13.8825C21.9552 14.6273 21.9946 15.2467 22.0734 15.7406C22.1601 16.2345 22.2823 16.6304 22.4399 16.9283C22.5975 17.2262 22.7866 17.4379 23.0073 17.5634C23.2359 17.681 23.492 17.7398 23.7757 17.7398Z" fill="#05B186"/>
</svg>
