<svg width="32" height="32" viewBox="0 0 32 32" fill="none" xmlns="http://www.w3.org/2000/svg">
<path d="M4.20569 14.9761V29.2024H27.7577V14.9761H29.952V30.2995C29.952 30.9055 29.4609 31.3966 28.8549 31.3966H3.10856C2.50256 31.3966 2.01144 30.9055 2.01144 30.2995V14.9761H4.20569Z" fill="#217461"/>
<path d="M1.09712 6.74707H30.9029C31.5089 6.74707 32 7.2382 32 7.8442V15.0122C32 15.6182 31.5089 16.1093 30.9029 16.1093H1.09719C0.491186 16.1093 6.29425e-05 15.6185 6.29425e-05 15.0122V7.8442C0 7.2382 0.491123 6.74707 1.09712 6.74707ZM2.19431 13.9154H29.8057V8.94176H2.19425V13.9154H2.19431Z" fill="#217461"/>
<path d="M14.9204 7.5667C14.9951 7.2822 16.8049 0.603516 22.0892 0.603516C24.3881 0.603516 26.2583 2.47377 26.2583 4.77264C26.2583 7.07152 24.4045 8.94177 22.1258 8.94177H15.9818C15.642 8.94177 15.3209 8.78414 15.1132 8.51495C14.9055 8.24577 14.8345 7.89545 14.9204 7.5667ZM22.1257 6.74752C23.2126 6.74752 24.064 5.88002 24.064 4.77264C24.064 3.7022 23.1596 2.79777 22.0891 2.79777C19.6816 2.79777 18.24 5.16945 17.5469 6.74745H22.1257V6.74752Z" fill="#05B186"/>
<path d="M9.87431 0.603516C15.1585 0.603516 16.9684 7.2822 17.0431 7.5667C17.1294 7.89545 17.0581 8.24583 16.8503 8.51502C16.6426 8.7842 16.3219 8.94183 15.9818 8.94183H9.83775C7.559 8.94183 5.70519 7.07158 5.70519 4.7727C5.70512 2.47377 7.57537 0.603516 9.87431 0.603516ZM9.83769 6.74752H14.4208C13.7329 5.16945 12.2956 2.79783 9.87387 2.79783C8.80344 2.79783 7.899 3.70227 7.899 4.7727C7.89906 5.88002 8.75044 6.74752 9.83769 6.74752Z" fill="#05B186"/>
<path d="M14 8H18V31.3906H14V8Z" fill="#05B186"/>
</svg>
